<svg id="Group_5410" data-name="Group 5410" xmlns="http://www.w3.org/2000/svg" xmlns:xlink="http://www.w3.org/1999/xlink" width="179.75" height="118.105" viewBox="0 0 179.75 118.105">
  <defs>
    <clipPath id="clip-path">
      <rect id="Rectangle_2025" data-name="Rectangle 2025" width="179.75" height="118.105" fill="none" stroke="rgba(0,0,0,0)" stroke-width="1.5"/>
    </clipPath>
  </defs>
  <g id="Group_5209" data-name="Group 5209" clip-path="url(#clip-path)">
    <path id="Path_15425" data-name="Path 15425" d="M83.478,222.415a27.345,27.345,0,0,1-1.413-17.6" transform="translate(-50.852 -128.25)" fill="none" stroke="#9583ac" stroke-linejoin="round" stroke-width="1.5"/>
    <path id="Path_15426" data-name="Path 15426" d="M91.008,254.342a4.493,4.493,0,1,1-4.493-4.537A4.515,4.515,0,0,1,91.008,254.342Z" transform="translate(-51.361 -156.424)" fill="none" stroke="#9583ac" stroke-linejoin="round" stroke-width="1.5"/>
    <path id="Path_15427" data-name="Path 15427" d="M192.31,205.183a27,27,0,0,1,.313,10.711" transform="translate(-120.422 -128.483)" fill="none" stroke="#9583ac" stroke-linejoin="round" stroke-width="1.5"/>
    <path id="Path_15428" data-name="Path 15428" d="M153.783,256.729l-.693,2.765c-2.537-.562-4.669-3.007-3.933-5.428l5.237-14.7c1.663-4.385,5.637-7.271,10.87-6.113h0c5.233,1.159,7.418,5.409,6.823,10.031l-2.3,15.355c-.491,2.476-3.56,3.768-6.1,3.207l.693-2.765" transform="translate(-93.308 -145.897)" fill="none" stroke="#9583ac" stroke-linecap="round" stroke-linejoin="round" stroke-width="1.5"/>
    <path id="Path_15429" data-name="Path 15429" d="M70.1,39.35c-.058-2.53-.2-8.372-.332-10.359-.008-6.849,1.736-20.764,14.358-20.8,4.018-.012,2.9-2.761,10.644-2.761,23.716-.013,25.682,15.97,25.682,23.563-.234,1.856-.287,7.631-.3,10.384" transform="translate(-43.685 -3.399)" fill="none" stroke="#fff" stroke-linejoin="round" stroke-width="1.5"/>
    <path id="Path_15430" data-name="Path 15430" d="M93.555,102.464a18,18,0,0,0,3.083-.231c.283-.042.464-.071.464-.071,2.267-.341,4.14-.635,6.023-2.077a37.327,37.327,0,0,0,3-2.578,35.688,35.688,0,0,0,6.818-8.57l1.915-5.278a3.35,3.35,0,0,1,.9-1.349c3.616-3.31,5.982-10.811,1.976-12.7a2.271,2.271,0,0,1-2.948-.959,12.2,12.2,0,0,1-1.969-4.493.82.82,0,0,0-.92-.65c-15.252,2.3-27.026-5.605-30.808-8.6a1.3,1.3,0,0,0-1.132-.24,1.1,1.1,0,0,0-.885.757,34.3,34.3,0,0,1-1.361,5.21,23.868,23.868,0,0,1-5.359,9.079c-1.3,1.379-2.972-.105-2.972-.105-4.006,1.888-1.644,9.39,1.976,12.7a3.4,3.4,0,0,1,.9,1.349l1.914,5.278a35.705,35.705,0,0,0,6.818,8.57,38.065,38.065,0,0,0,3,2.578c1.878,1.442,3.756,1.737,6.018,2.077,0,0,.185.03.464.071a18.076,18.076,0,0,0,3.087.231" transform="translate(-42.135 -34.207)" fill="none" stroke="#fff" stroke-linejoin="round" stroke-width="1.5"/>
    <path id="Path_15431" data-name="Path 15431" d="M171.147,169.318a66.962,66.962,0,0,0,1.077,10.755l26.208,10.159a9.486,9.486,0,0,1,5.436,5.564c1.4,3.977,3.314,16.293,4.347,27.363" transform="translate(-107.17 -106.025)" fill="none" stroke="#fff" stroke-linejoin="round" stroke-width="1.5"/>
    <path id="Path_15432" data-name="Path 15432" d="M42.247,169.318a65.616,65.616,0,0,1-1.262,10.755L15.15,190.226a9.486,9.486,0,0,0-5.388,5.544c-1.4,3.972-3.321,16.295-4.356,27.389" transform="translate(-3.385 -106.025)" fill="none" stroke="#fff" stroke-linejoin="round" stroke-width="1.5"/>
    <path id="Path_15433" data-name="Path 15433" d="M376.117,187.289a32.831,32.831,0,0,0,1.482,5.826,9,9,0,0,0,1.213,1.913l1.049.416,24.33,9.6a9.108,9.108,0,0,1,5.035,5.482c1.3,3.924,3.063,10.915,4.022,21.83" transform="translate(-235.519 -117.278)" fill="none" stroke="#fff" stroke-linejoin="round" stroke-width="1.5"/>
    <path id="Path_15434" data-name="Path 15434" d="M292.682,187.607a30.816,30.816,0,0,1-1.62,5.706,9.083,9.083,0,0,1-1.214,1.915l-1.048.416-1.831.717v.006l-16.59,6.54" transform="translate(-169.307 -117.477)" fill="none" stroke="#fff" stroke-linejoin="round" stroke-width="1.5"/>
    <path id="Path_15435" data-name="Path 15435" d="M391.849,72.538c10.718,17.369,2.032,39.286,2.451,44.847.37,5.054-14.218,3.875-14.218,3.875" transform="translate(-238.001 -45.422)" fill="none" stroke="#fff" stroke-linejoin="round" stroke-width="1.5"/>
    <path id="Path_15436" data-name="Path 15436" d="M285.217,72.554c-10.718,17.37-2.032,39.28-2.444,44.841-.376,5.054,14.212,3.875,14.212,3.875" transform="translate(-175.232 -45.432)" fill="none" stroke="#fff" stroke-linejoin="round" stroke-width="1.5"/>
    <path id="Path_15437" data-name="Path 15437" d="M336.05,34.925,329.79,53.332a32.526,32.526,0,0,0-37.384,0l-6.261-18.406c4.517-7.361,14.117-12.414,24.952-12.414S331.533,27.564,336.05,34.925Z" transform="translate(-179.18 -14.096)" fill="none" stroke="#fff" stroke-linejoin="round" stroke-width="1.5"/>
    <line id="Line_186" data-name="Line 186" y2="16.767" transform="translate(154.182 95.549)" fill="none" stroke="#9583ac" stroke-linejoin="round" stroke-width="1.5"/>
    <line id="Line_187" data-name="Line 187" x2="16.003" transform="translate(146.181 103.932)" fill="none" stroke="#9583ac" stroke-linejoin="round" stroke-width="1.5"/>
    <path id="Path_15438" data-name="Path 15438" d="M339.771,96.6a51.255,51.255,0,0,1,.37,6.185c0,17.228-8.462,31.193-18.9,31.193s-18.9-13.965-18.9-31.193a51.33,51.33,0,0,1,.37-6.185" transform="translate(-189.32 -60.492)" fill="none" stroke="#fff" stroke-linejoin="round" stroke-width="1.5"/>
    <path id="Path_15439" data-name="Path 15439" d="M343.252,211.033a.872.872,0,0,1,.012.179c0,3.731-6.387,6.76-14.265,6.76s-14.265-3.029-14.265-6.76a.872.872,0,0,1,.012-.179" transform="translate(-197.082 -132.146)" fill="none" stroke="#fff" stroke-linejoin="round" stroke-width="1.5"/>
    <path id="Path_15440" data-name="Path 15440" d="M97.14,199.637l10.6,5.793a9.32,9.32,0,0,0,9.01,0l10.6-5.793" transform="translate(-60.828 -125.01)" fill="none" stroke="#fff" stroke-linejoin="round" stroke-width="1.5"/>
  </g>
</svg>
