<svg xmlns="http://www.w3.org/2000/svg" xmlns:xlink="http://www.w3.org/1999/xlink" width="154.593" height="154.644" viewBox="0 0 154.593 154.644">
  <defs>
    <clipPath id="clip-path">
      <rect id="Rectangle_2206" data-name="Rectangle 2206" width="154.291" height="154.291" fill="#fff"/>
    </clipPath>
  </defs>
  <g id="Group_5418" data-name="Group 5418" transform="translate(-956.815 -1225.192)">
    <text id="_76_" data-name="76%" transform="translate(997 1317)" fill="#fff" font-size="36" font-family="LibreFranklin-Medium, Libre Franklin" font-weight="500" letter-spacing="0.003em"><tspan x="0" y="0">76%</tspan></text>
    <g id="Group_5402" data-name="Group 5402" transform="translate(956.814 1225.191)">
      <g id="Group_5400" data-name="Group 5400" transform="translate(0 0.353)" opacity="0.1">
        <g id="Group_5399" data-name="Group 5399">
          <g id="Group_5398" data-name="Group 5398" clip-path="url(#clip-path)">
            <path id="Path_15595" data-name="Path 15595" d="M233.529,0a5.695,5.695,0,1,0,5.695,5.7A5.695,5.695,0,0,0,233.529,0" transform="translate(-156.052 -0.353)" fill="#fff"/>
            <path id="Path_15596" data-name="Path 15596" d="M233.529,455.668a5.695,5.695,0,1,0,5.695,5.695,5.695,5.695,0,0,0-5.695-5.695" transform="translate(-156.052 -313.175)" fill="#fff"/>
            <path id="Path_15597" data-name="Path 15597" d="M11.39,233.529a5.695,5.695,0,1,0-5.695,5.695,5.695,5.695,0,0,0,5.695-5.695" transform="translate(0.359 -156.764)" fill="#f9f4ff"/>
            <path id="Path_15598" data-name="Path 15598" d="M461.362,227.834a5.695,5.695,0,1,0,5.695,5.695,5.695,5.695,0,0,0-5.695-5.695" transform="translate(-312.463 -156.764)" fill="#fff"/>
            <path id="Path_15599" data-name="Path 15599" d="M96.263,44.6a5.695,5.695,0,1,0,7.954,1.26,5.695,5.695,0,0,0-7.954-1.26" transform="translate(-64.115 -30.224)" fill="#f9f4ff"/>
            <path id="Path_15600" data-name="Path 15600" d="M364.1,413.242a5.695,5.695,0,1,0,7.954,1.26,5.695,5.695,0,0,0-7.954-1.26" transform="translate(-247.987 -283.302)" fill="#fff"/>
            <path id="Path_15601" data-name="Path 15601" d="M45.859,362.838a5.695,5.695,0,1,0,7.954,1.26,5.695,5.695,0,0,0-7.954-1.26" transform="translate(-29.512 -248.699)" fill="#fff"/>
            <path id="Path_15602" data-name="Path 15602" d="M421.2,104.218a5.695,5.695,0,1,0-7.954-1.26,5.695,5.695,0,0,0,7.954,1.26" transform="translate(-282.59 -64.827)" fill="#fff"/>
            <path id="Path_15603" data-name="Path 15603" d="M370.792,44.6a5.695,5.695,0,1,0,1.26,7.954,5.695,5.695,0,0,0-1.26-7.954" transform="translate(-247.987 -30.224)" fill="#fff"/>
            <path id="Path_15604" data-name="Path 15604" d="M102.957,413.242a5.695,5.695,0,1,0,1.26,7.954,5.695,5.695,0,0,0-1.26-7.954" transform="translate(-64.115 -283.302)" fill="#fff"/>
            <path id="Path_15605" data-name="Path 15605" d="M421.2,362.838a5.695,5.695,0,1,0,1.26,7.954,5.695,5.695,0,0,0-1.26-7.954" transform="translate(-282.59 -248.699)" fill="#fff"/>
            <path id="Path_15606" data-name="Path 15606" d="M52.553,95a5.695,5.695,0,1,0,1.26,7.954A5.7,5.7,0,0,0,52.553,95" transform="translate(-29.512 -64.827)" fill="#f9f4ff"/>
            <path id="Path_15607" data-name="Path 15607" d="M15.082,168.537a5.695,5.695,0,1,0-3.656-7.176,5.7,5.7,0,0,0,3.656,7.176" transform="translate(-7.292 -108.427)" fill="#f9f4ff"/>
            <path id="Path_15608" data-name="Path 15608" d="M451.968,298.514a5.695,5.695,0,1,0,3.656,7.176,5.695,5.695,0,0,0-3.656-7.176" transform="translate(-304.804 -205.094)" fill="#fff"/>
            <path id="Path_15609" data-name="Path 15609" d="M164.88,444.792a5.695,5.695,0,1,0,3.656,7.176,5.7,5.7,0,0,0-3.656-7.176" transform="translate(-107.715 -305.516)" fill="#fff"/>
            <path id="Path_15610" data-name="Path 15610" d="M305.69,11.426a5.695,5.695,0,1,0,3.657,7.176,5.694,5.694,0,0,0-3.657-7.176" transform="translate(-204.383 -8.004)" fill="#fff"/>
            <path id="Path_15611" data-name="Path 15611" d="M22.258,302.171l-10.834,3.52a5.7,5.7,0,0,1,10.834-3.52" transform="translate(-7.291 -205.095)" fill="#f9f4ff"/>
            <path id="Path_15612" data-name="Path 15612" d="M444.792,164.881a5.695,5.695,0,1,0,3.656-7.176,5.695,5.695,0,0,0-3.656,7.176" transform="translate(-304.805 -108.427)" fill="#fff"/>
            <path id="Path_15613" data-name="Path 15613" d="M302.17,444.792a5.695,5.695,0,1,0,7.176,3.656,5.695,5.695,0,0,0-7.176-3.656" transform="translate(-204.383 -305.516)" fill="#fff"/>
            <path id="Path_15614" data-name="Path 15614" d="M161.361,11.426a5.695,5.695,0,1,0,7.176,3.656,5.695,5.695,0,0,0-7.176-3.656" transform="translate(-107.714 -8.004)" fill="#f9f4ff"/>
          </g>
        </g>
      </g>
      <path id="Path_15615" data-name="Path 15615" d="M233.529,0a5.695,5.695,0,1,0,5.695,5.7A5.695,5.695,0,0,0,233.529,0" transform="translate(-156.051 0)" fill="#fff"/>
      <path id="Path_15616" data-name="Path 15616" d="M233.529,455.668a5.695,5.695,0,1,0,5.695,5.695,5.695,5.695,0,0,0-5.695-5.695" transform="translate(-156.051 -312.821)" fill="#fff"/>
      <path id="Path_15617" data-name="Path 15617" d="M461.362,227.834a5.695,5.695,0,1,0,5.695,5.695,5.695,5.695,0,0,0-5.695-5.695" transform="translate(-312.463 -156.409)" fill="#fff"/>
      <path id="Path_15618" data-name="Path 15618" d="M364.1,413.242a5.695,5.695,0,1,0,7.954,1.26,5.695,5.695,0,0,0-7.954-1.26" transform="translate(-247.987 -282.95)" fill="#fff"/>
      <path id="Path_15619" data-name="Path 15619" d="M45.859,362.838a5.695,5.695,0,1,0,7.954,1.26,5.695,5.695,0,0,0-7.954-1.26" transform="translate(-29.513 -248.345)" fill="#fff"/>
      <path id="Path_15620" data-name="Path 15620" d="M421.2,104.218a5.695,5.695,0,1,0-7.954-1.26,5.695,5.695,0,0,0,7.954,1.26" transform="translate(-282.592 -64.474)" fill="#fff"/>
      <path id="Path_15621" data-name="Path 15621" d="M370.792,44.6a5.695,5.695,0,1,0,1.26,7.954,5.695,5.695,0,0,0-1.26-7.954" transform="translate(-247.987 -29.872)" fill="#fff"/>
      <path id="Path_15622" data-name="Path 15622" d="M102.957,413.242a5.695,5.695,0,1,0,1.26,7.954,5.695,5.695,0,0,0-1.26-7.954" transform="translate(-64.113 -282.95)" fill="#fff"/>
      <path id="Path_15623" data-name="Path 15623" d="M421.2,362.838a5.695,5.695,0,1,0,1.26,7.954,5.695,5.695,0,0,0-1.26-7.954" transform="translate(-282.592 -248.345)" fill="#fff"/>
      <path id="Path_15624" data-name="Path 15624" d="M451.968,298.514a5.695,5.695,0,1,0,3.656,7.176,5.695,5.695,0,0,0-3.656-7.176" transform="translate(-304.805 -204.742)" fill="#fff"/>
      <path id="Path_15625" data-name="Path 15625" d="M164.88,444.792a5.695,5.695,0,1,0,3.656,7.176,5.7,5.7,0,0,0-3.656-7.176" transform="translate(-107.715 -305.164)" fill="#fff"/>
      <path id="Path_15626" data-name="Path 15626" d="M305.69,11.426a5.695,5.695,0,1,0,3.657,7.176,5.694,5.694,0,0,0-3.657-7.176" transform="translate(-204.381 -7.652)" fill="#fff"/>
      <path id="Path_15627" data-name="Path 15627" d="M444.792,164.881a5.695,5.695,0,1,0,3.656-7.176,5.695,5.695,0,0,0-3.656,7.176" transform="translate(-304.805 -108.076)" fill="#fff"/>
      <path id="Path_15628" data-name="Path 15628" d="M302.17,444.792a5.695,5.695,0,1,0,7.176,3.656,5.695,5.695,0,0,0-7.176-3.656" transform="translate(-204.381 -305.164)" fill="#fff"/>
      <path id="Path_15629" data-name="Path 15629" d="M19.214,317.966a5.7,5.7,0,0,1-7.176-3.655l10.834-3.52a5.7,5.7,0,0,1-3.658,7.176" transform="translate(-7.904 -213.361)" fill="#fff"/>
    </g>
  </g>
</svg>
