<svg xmlns="http://www.w3.org/2000/svg" width="154.235" height="154.236" viewBox="0 0 154.235 154.236">
  <g id="Group_5416" data-name="Group 5416" transform="translate(-605.883 -1225.192)">
    <text id="_90_" data-name="90%" transform="translate(641.355 1318)" fill="#fff" font-size="37" font-family="LibreFranklin-Medium, Libre Franklin" font-weight="500" letter-spacing="0.003em"><tspan x="0" y="0">90%</tspan></text>
    <g id="Group_5401" data-name="Group 5401" transform="translate(605.883 1225.191)">
      <path id="Path_15557" data-name="Path 15557" d="M233.271,0a5.695,5.695,0,1,0,5.695,5.7A5.695,5.695,0,0,0,233.271,0" transform="translate(-156.152 0)" fill="#fff"/>
      <path id="Path_15558" data-name="Path 15558" d="M233.271,455.152a5.695,5.695,0,1,0,5.695,5.695,5.695,5.695,0,0,0-5.695-5.695" transform="translate(-156.152 -312.306)" fill="#fff"/>
      <path id="Path_15559" data-name="Path 15559" d="M11.39,233.271a5.695,5.695,0,1,0-5.695,5.695,5.695,5.695,0,0,0,5.695-5.695" transform="translate(0 -156.152)" fill="#fff"/>
      <path id="Path_15560" data-name="Path 15560" d="M460.847,227.576a5.695,5.695,0,1,0,5.7,5.695,5.695,5.695,0,0,0-5.7-5.695" transform="translate(-312.307 -156.152)" fill="#fff"/>
      <path id="Path_15561" data-name="Path 15561" d="M96.157,44.55a5.695,5.695,0,1,0,7.955,1.26,5.695,5.695,0,0,0-7.955-1.26" transform="translate(-64.367 -29.821)" fill="#f9f4ff" opacity="0.1"/>
      <path id="Path_15562" data-name="Path 15562" d="M363.688,412.775a5.695,5.695,0,1,0,7.955,1.26,5.7,5.7,0,0,0-7.955-1.26" transform="translate(-247.936 -282.481)" fill="#fff"/>
      <path id="Path_15563" data-name="Path 15563" d="M45.81,362.428a5.695,5.695,0,1,0,7.955,1.26,5.7,5.7,0,0,0-7.955-1.26" transform="translate(-29.821 -247.935)" fill="#fff"/>
      <path id="Path_15564" data-name="Path 15564" d="M420.73,104.111a5.695,5.695,0,1,0-7.955-1.26,5.7,5.7,0,0,0,7.955,1.26" transform="translate(-282.482 -64.366)" fill="#fff"/>
      <path id="Path_15565" data-name="Path 15565" d="M370.383,44.55a5.695,5.695,0,1,0,1.26,7.955,5.694,5.694,0,0,0-1.26-7.955" transform="translate(-247.936 -29.821)" fill="#fff"/>
      <path id="Path_15566" data-name="Path 15566" d="M102.851,412.775a5.695,5.695,0,1,0,1.26,7.955,5.695,5.695,0,0,0-1.26-7.955" transform="translate(-64.367 -282.481)"/>
      <path id="Path_15567" data-name="Path 15567" d="M420.73,362.428a5.695,5.695,0,1,0,1.26,7.955,5.695,5.695,0,0,0-1.26-7.955" transform="translate(-282.482 -247.935)" fill="#fff"/>
      <path id="Path_15568" data-name="Path 15568" d="M52.5,94.9a5.695,5.695,0,1,0,1.26,7.955A5.694,5.694,0,0,0,52.5,94.9" transform="translate(-29.821 -64.366)" fill="#fff"/>
      <path id="Path_15569" data-name="Path 15569" d="M15.07,168.36a5.695,5.695,0,1,0-3.656-7.176,5.7,5.7,0,0,0,3.656,7.176" transform="translate(-7.639 -107.896)" fill="#fff"/>
      <path id="Path_15570" data-name="Path 15570" d="M451.464,298.177a5.695,5.695,0,1,0,3.656,7.176,5.7,5.7,0,0,0-3.656-7.176" transform="translate(-304.658 -204.402)" fill="#fff"/>
      <path id="Path_15571" data-name="Path 15571" d="M164.7,444.288a5.695,5.695,0,1,0,3.656,7.176,5.7,5.7,0,0,0-3.656-7.176" transform="translate(-107.897 -304.66)"/>
      <path id="Path_15572" data-name="Path 15572" d="M305.352,11.414a5.695,5.695,0,1,0,3.656,7.176,5.7,5.7,0,0,0-3.656-7.176" transform="translate(-204.403 -7.638)" fill="#fff"/>
      <path id="Path_15573" data-name="Path 15573" d="M22.246,301.833a5.695,5.695,0,1,0-3.657,7.176,5.695,5.695,0,0,0,3.657-7.176" transform="translate(-7.639 -204.402)" fill="#fff"/>
      <path id="Path_15574" data-name="Path 15574" d="M444.289,164.7a5.695,5.695,0,1,0,3.656-7.176,5.695,5.695,0,0,0-3.656,7.176" transform="translate(-304.66 -107.894)" fill="#fff"/>
      <path id="Path_15575" data-name="Path 15575" d="M301.833,444.288a5.695,5.695,0,1,0,7.176,3.656,5.695,5.695,0,0,0-7.176-3.656" transform="translate(-204.403 -304.66)" fill="#fff"/>
      <path id="Path_15576" data-name="Path 15576" d="M161.182,11.414a5.695,5.695,0,1,0,7.176,3.656,5.695,5.695,0,0,0-7.176-3.656" transform="translate(-107.894 -7.638)" fill="#f9f4ff" opacity="0.1"/>
      <path id="Path_15577" data-name="Path 15577" d="M233.271,0a5.695,5.695,0,1,0,5.695,5.7A5.695,5.695,0,0,0,233.271,0" transform="translate(-156.152 0)" fill="#fff"/>
      <path id="Path_15578" data-name="Path 15578" d="M233.271,455.152a5.695,5.695,0,1,0,5.695,5.695,5.695,5.695,0,0,0-5.695-5.695" transform="translate(-156.152 -312.306)" fill="#fff"/>
      <path id="Path_15579" data-name="Path 15579" d="M11.39,233.271a5.695,5.695,0,1,0-5.695,5.695,5.695,5.695,0,0,0,5.695-5.695" transform="translate(0 -156.152)" fill="#fff"/>
      <path id="Path_15580" data-name="Path 15580" d="M460.847,227.576a5.695,5.695,0,1,0,5.7,5.695,5.695,5.695,0,0,0-5.7-5.695" transform="translate(-312.307 -156.152)" fill="#fff"/>
      <path id="Path_15581" data-name="Path 15581" d="M363.688,412.775a5.695,5.695,0,1,0,7.955,1.26,5.7,5.7,0,0,0-7.955-1.26" transform="translate(-247.936 -282.481)" fill="#fff"/>
      <path id="Path_15582" data-name="Path 15582" d="M45.81,362.428a5.695,5.695,0,1,0,7.955,1.26,5.7,5.7,0,0,0-7.955-1.26" transform="translate(-29.821 -247.935)" fill="#fff"/>
      <path id="Path_15583" data-name="Path 15583" d="M420.73,104.111a5.695,5.695,0,1,0-7.955-1.26,5.7,5.7,0,0,0,7.955,1.26" transform="translate(-282.482 -64.366)" fill="#fff"/>
      <path id="Path_15584" data-name="Path 15584" d="M370.383,44.55a5.695,5.695,0,1,0,1.26,7.955,5.694,5.694,0,0,0-1.26-7.955" transform="translate(-247.936 -29.821)" fill="#fff"/>
      <path id="Path_15585" data-name="Path 15585" d="M102.851,412.775a5.695,5.695,0,1,0,1.26,7.955,5.695,5.695,0,0,0-1.26-7.955" transform="translate(-64.367 -282.481)" fill="#fff"/>
      <path id="Path_15586" data-name="Path 15586" d="M420.73,362.428a5.695,5.695,0,1,0,1.26,7.955,5.695,5.695,0,0,0-1.26-7.955" transform="translate(-282.482 -247.935)" fill="#fff"/>
      <path id="Path_15587" data-name="Path 15587" d="M52.5,94.9a5.695,5.695,0,1,0,1.26,7.955A5.694,5.694,0,0,0,52.5,94.9" transform="translate(-29.821 -64.366)" fill="#fff"/>
      <path id="Path_15588" data-name="Path 15588" d="M15.07,168.36a5.695,5.695,0,1,0-3.656-7.176,5.7,5.7,0,0,0,3.656,7.176" transform="translate(-7.639 -107.896)" fill="#fff"/>
      <path id="Path_15589" data-name="Path 15589" d="M451.464,298.177a5.695,5.695,0,1,0,3.656,7.176,5.7,5.7,0,0,0-3.656-7.176" transform="translate(-304.658 -204.402)" fill="#fff"/>
      <path id="Path_15590" data-name="Path 15590" d="M164.7,444.288a5.695,5.695,0,1,0,3.656,7.176,5.7,5.7,0,0,0-3.656-7.176" transform="translate(-107.897 -304.657)" fill="#fff"/>
      <path id="Path_15591" data-name="Path 15591" d="M305.352,11.414a5.695,5.695,0,1,0,3.656,7.176,5.7,5.7,0,0,0-3.656-7.176" transform="translate(-204.403 -7.638)" fill="#fff"/>
      <path id="Path_15592" data-name="Path 15592" d="M22.246,301.833a5.695,5.695,0,1,0-3.657,7.176,5.695,5.695,0,0,0,3.657-7.176" transform="translate(-7.639 -204.402)" fill="#fff"/>
      <path id="Path_15593" data-name="Path 15593" d="M444.289,164.7a5.695,5.695,0,1,0,3.656-7.176,5.695,5.695,0,0,0-3.656,7.176" transform="translate(-304.66 -107.894)" fill="#fff"/>
      <path id="Path_15594" data-name="Path 15594" d="M301.833,444.288a5.695,5.695,0,1,0,7.176,3.656,5.695,5.695,0,0,0-7.176-3.656" transform="translate(-204.403 -304.657)" fill="#fff"/>
    </g>
  </g>
</svg>
