<?xml version="1.0" encoding="UTF-8"?>
<svg id="Layer_2" data-name="Layer 2" xmlns="http://www.w3.org/2000/svg" xmlns:xlink="http://www.w3.org/1999/xlink" viewBox="0 0 179.75 118.11">
  <defs>
    <style>
      .cls-1, .cls-2, .cls-3, .cls-4, .cls-5, .cls-6, .cls-7 {
        fill: none;
      }

      .cls-2 {
        stroke-linecap: round;
      }

      .cls-2, .cls-5, .cls-6 {
        stroke-linejoin: round;
        stroke-width: 1.5px;
      }

      .cls-2, .cls-6 {
        stroke: #9583ac;
      }

      .cls-3 {
        clip-path: url(#clippath-1);
      }

      .cls-4 {
        isolation: isolate;
      }

      .cls-5 {
        stroke: #333;
      }

      .cls-7 {
        clip-path: url(#clippath);
      }
    </style>
    <clipPath id="clippath">
      <rect class="cls-1" width="179.75" height="118.11"/>
    </clipPath>
    <clipPath id="clippath-1">
      <rect class="cls-1" width="179.75" height="118.25"/>
    </clipPath>
  </defs>
  <g id="Layer_1-2" data-name="Layer 1">
    <g class="cls-7">
      <g class="cls-4">
        <g class="cls-3">
          <path class="cls-6" d="m32.63,94.17c-2.3-5.59-2.99-11.58-1.41-17.6"/>
          <path class="cls-6" d="m39.65,97.92c0,2.51-2.01,4.54-4.49,4.54s-4.49-2.03-4.49-4.54,2.01-4.54,4.49-4.54,4.49,2.03,4.49,4.54Z"/>
          <path class="cls-6" d="m71.89,76.7c.9,3.57.84,7.26.31,10.71"/>
          <path class="cls-2" d="m60.48,110.83l-.69,2.77c-2.54-.56-4.67-3.01-3.93-5.43l5.24-14.7c1.66-4.39,5.64-7.27,10.87-6.11h0c5.23,1.16,7.42,5.41,6.82,10.03l-2.3,15.36c-.49,2.48-3.56,3.77-6.1,3.21l.69-2.77"/>
          <path class="cls-5" d="m26.41,35.95c-.06-2.53-.2-8.37-.33-10.36,0-6.85,1.74-20.76,14.36-20.8,4.02-.01,2.9-2.76,10.64-2.76,23.72-.01,25.68,15.97,25.68,23.56-.23,1.86-.29,7.63-.3,10.38"/>
          <path class="cls-5" d="m51.42,68.26c1.31,0,2.06-.08,3.08-.23.28-.04.46-.07.46-.07,2.27-.34,4.14-.64,6.02-2.08,1.01-.77,2.02-1.64,3-2.58,2.83-2.68,5.41-5.87,6.82-8.57l1.92-5.28c.19-.52.49-.98.9-1.35,3.62-3.31,5.98-10.81,1.98-12.7,0,0-1.66.89-2.95-.96-.7-1.01-1.53-2.47-1.97-4.49-.09-.43-.49-.71-.92-.65-15.25,2.3-27.03-5.61-30.81-8.6-.32-.25-.74-.34-1.13-.24-.39.1-.81.35-.89.76-.34,1.84-.79,3.57-1.36,5.21-1.35,3.89-2.99,6.56-5.36,9.08-1.3,1.38-2.97-.11-2.97-.11-4.01,1.89-1.64,9.39,1.98,12.7.4.37.71.83.9,1.35l1.91,5.28c1.41,2.71,3.99,5.89,6.82,8.57.98.93,2,1.81,3,2.58,1.88,1.44,3.76,1.74,6.02,2.08,0,0,.18.03.46.07,1.03.16,1.78.23,3.09.23"/>
          <path class="cls-5" d="m63.98,63.29c.2,3.76.39,7.89,1.08,10.76l26.21,10.16c2.57,1.05,4.55,3.07,5.44,5.56,1.4,3.98,3.31,16.29,4.35,27.36"/>
          <path class="cls-5" d="m38.86,63.29c-.2,3.76-.57,7.89-1.26,10.76l-25.84,10.15c-2.55,1.05-4.51,3.06-5.39,5.54-1.4,3.97-3.32,16.29-4.36,27.39"/>
          <path class="cls-5" d="m140.6,70.01c.42,1.99.86,4.51,1.48,5.83.31.66.7,1.28,1.21,1.91l1.05.42,24.33,9.6c2.38,1.03,4.22,3.02,5.03,5.48,1.3,3.92,3.06,10.92,4.02,21.83"/>
          <path class="cls-5" d="m123.37,70.13c-.42,1.99-1,4.39-1.62,5.71-.31.66-.7,1.29-1.21,1.92l-1.05.42-1.83.72h0s-16.59,6.55-16.59,6.55"/>
          <path class="cls-5" d="m153.85,27.12c10.72,17.37,2.03,39.29,2.45,44.85.37,5.05-14.22,3.87-14.22,3.87"/>
          <path class="cls-5" d="m109.99,27.12c-10.72,17.37-2.03,39.28-2.44,44.84-.38,5.05,14.21,3.87,14.21,3.87"/>
          <path class="cls-5" d="m156.87,20.83l-6.26,18.41c-4.92-3.67-11.48-5.91-18.69-5.91s-13.77,2.24-18.69,5.91l-6.26-18.41c4.52-7.36,14.12-12.41,24.95-12.41s20.44,5.05,24.95,12.41Z"/>
          <line class="cls-6" x1="154.18" y1="95.55" x2="154.18" y2="112.32"/>
          <line class="cls-6" x1="146.18" y1="103.93" x2="162.18" y2="103.93"/>
          <path class="cls-5" d="m150.45,36.11c.24,2,.37,4.06.37,6.19,0,17.23-8.46,31.19-18.9,31.19s-18.9-13.96-18.9-31.19c0-2.12.13-4.19.37-6.19"/>
          <path class="cls-5" d="m146.17,78.89c.01.06.01.12.01.18,0,3.73-6.39,6.76-14.27,6.76s-14.26-3.03-14.26-6.76c0-.06,0-.12.01-.18"/>
          <path class="cls-5" d="m36.31,74.63l10.6,5.79c2.83,1.55,6.18,1.55,9.01,0l10.6-5.79"/>
        </g>
      </g>
    </g>
  </g>
</svg>